<svg width="1280" height="720" xmlns="http://www.w3.org/2000/svg" xmlns:xlink="http://www.w3.org/1999/xlink" overflow="hidden"><g><rect x="0" y="0" width="1280" height="720" fill="#FFFFFF"/><path d="M266 324C266 334.493 283.685 343 305.5 343 327.315 343 345 334.493 345 324L345 362C345 372.493 327.315 381 305.5 381 283.685 381 266 372.493 266 362Z" fill="#55A9E5" fill-rule="evenodd"/><path d="M266 324C266 313.507 283.685 305 305.5 305 327.315 305 345 313.507 345 324 345 334.493 327.315 343 305.5 343 283.685 343 266 334.493 266 324Z" fill="#99CBEF" fill-rule="evenodd"/><path d="M345 324C345 334.493 327.315 343 305.5 343 283.685 343 266 334.493 266 324 266 313.507 283.685 305 305.5 305 327.315 305 345 313.507 345 324L345 362C345 372.493 327.315 381 305.5 381 283.685 381 266 372.493 266 362L266 324" stroke="#2F5597" stroke-width="4" stroke-miterlimit="8" fill="none" fill-rule="evenodd"/><path d="M320.5 321.5 332.5 321.5 332.5 318.5 338.5 324.5 332.5 330.5 332.5 327.5 320.5 327.5Z" stroke="#2F5597" stroke-width="2.66667" stroke-miterlimit="8" fill="#FFFFFF" fill-rule="evenodd"/><path d="M0 3 12 3 12 0 18 6 12 12 12 9 0 9Z" stroke="#2F5597" stroke-width="2.66667" stroke-miterlimit="8" fill="#FFFFFF" fill-rule="evenodd" transform="matrix(-1 0 0 1 292.5 318.5)"/><path d="M0 2.75 8.50001 2.75 8.50001 0 14 5.50001 8.50001 11 8.50001 8.25 0 8.25Z" stroke="#2F5597" stroke-width="2.66667" stroke-miterlimit="8" fill="#FFFFFF" fill-rule="evenodd" transform="matrix(-6.12323e-17 -1 -1 6.12323e-17 311.5 341.5)"/><path d="M308.75 308.5 308.75 316 311.5 316 306 321.5 300.5 316 303.25 316 303.25 308.5Z" stroke="#2F5597" stroke-width="2.66667" stroke-miterlimit="8" fill="#FFFFFF" fill-rule="evenodd"/><text fill="#55A9E5" font-family="Calibri,Calibri_MSFontService,sans-serif" font-weight="700" font-size="19" transform="translate(134.493 380)">192.168.1.1/24</text><path d="M0 0 120.945 0.000104987" stroke="#4472C4" stroke-width="4" stroke-miterlimit="8" stroke-dasharray="16 12" fill="none" fill-rule="evenodd" transform="matrix(1 0 0 -1 143 343)"/><path d="M110 344C110 335.716 116.716 329 125 329 133.284 329 140 335.716 140 344 140 352.284 133.284 359 125 359 116.716 359 110 352.284 110 344Z" stroke="#2F5597" stroke-width="4" stroke-miterlimit="8" fill="none" fill-rule="evenodd"/><text fill="#55A9E5" font-family="Calibri,Calibri_MSFontService,sans-serif" font-weight="700" font-size="19" transform="translate(272.682 421)">Router 3</text><rect x="443" y="301" width="107" height="80" stroke="#55A9E5" stroke-width="4" stroke-miterlimit="8" fill="none"/><path d="M443 327 549.43 327" stroke="#55A9E5" stroke-width="4" stroke-miterlimit="8" fill="none" fill-rule="evenodd"/><path d="M443 355 549.43 355" stroke="#55A9E5" stroke-width="4" stroke-miterlimit="8" fill="none" fill-rule="evenodd"/><path d="M470 300 470 327.056" stroke="#55A9E5" stroke-width="4" stroke-miterlimit="8" fill="none" fill-rule="evenodd"/><path d="M523 300 523 327.056" stroke="#55A9E5" stroke-width="4" stroke-miterlimit="8" fill="none" fill-rule="evenodd"/><path d="M497 327 497 355.097" stroke="#55A9E5" stroke-width="4" stroke-miterlimit="8" fill="none" fill-rule="evenodd"/><path d="M523 354 523 382.097" stroke="#55A9E5" stroke-width="4" stroke-miterlimit="8" fill="none" fill-rule="evenodd"/><path d="M470 354 470 382.097" stroke="#55A9E5" stroke-width="4" stroke-miterlimit="8" fill="none" fill-rule="evenodd"/><path d="M520.826 334.014C520.967 334.23 520.911 337.253 521.163 338.419 521.416 339.585 521.752 340.147 522.341 341.01 522.93 341.874 523.8 342.853 524.698 343.602 525.595 344.351 526.549 344.854 527.727 345.502 528.906 346.15 530.519 346.841 531.767 347.489 533.016 348.137 533.997 348.626 535.218 349.389 536.438 350.152 537.967 350.959 539.089 352.067 540.211 353.176 541.263 354.961 541.95 356.041 542.638 357.12 542.82 357.927 543.213 358.546 543.606 359.165 543.956 359.554 544.307 359.755 544.658 359.957 545.092 359.957 545.317 359.755 545.541 359.554 545.415 358.344 545.653 358.546 545.892 358.747 546.523 360.072 546.747 360.964 546.972 361.857 547 362.822 547 363.901 547 364.981 546.93 366.147 546.747 367.443 546.565 368.739 546.172 370.466 545.906 371.676 545.639 372.885 545.513 373.734 545.148 374.699 544.784 375.664 544.293 376.527 543.718 377.463 543.143 378.399 542.301 379.608 541.698 380.314 541.095 381.019 540.716 381.235 540.099 381.696 539.482 382.156 539.131 382.56 537.995 383.078 536.859 383.596 534.699 384.503 533.282 384.805 531.865 385.108 530.701 384.993 529.495 384.892 528.289 384.791 527.18 384.518 526.044 384.201 524.908 383.884 523.94 383.639 522.678 382.991 521.416 382.344 519.578 381.293 518.47 380.314 517.362 379.335 516.604 378.543 516.029 377.118 515.454 375.692 515.118 373.331 515.019 371.762 514.921 370.193 515.216 368.926 515.44 367.702 515.665 366.478 516.099 365.269 516.366 364.42 516.632 363.57 516.801 363.326 517.039 362.606 517.278 361.886 517.713 360.878 517.797 360.101 517.881 359.323 517.334 358.027 517.544 357.941 517.755 357.855 518.484 359.841 519.059 359.582 519.634 359.323 520.532 357.452 520.995 356.386 521.458 355.321 521.64 354.385 521.836 353.19 522.033 351.995 522.145 350.397 522.173 349.217 522.201 348.036 522.201 347.215 522.005 346.107 521.808 344.998 521.261 343.645 520.995 342.565 520.728 341.486 520.518 340.535 520.406 339.628 520.293 338.721 520.251 338.045 520.321 337.123 520.392 336.202 520.686 333.798 520.826 334.014Z" fill="#55A9E5" fill-rule="evenodd"/><path d="M529.279 356.048C529.716 355.747 531.207 356.948 531.859 357.354 532.512 357.761 532.809 358.152 533.194 358.486 533.58 358.82 533.758 358.893 534.173 359.357 534.589 359.822 535.271 360.649 535.686 361.273 536.101 361.897 536.398 362.333 536.665 363.102 536.932 363.871 537.11 365.003 537.288 365.889 537.466 366.774 537.629 367.616 537.733 368.414 537.837 369.212 537.867 370.083 537.911 370.678 537.956 371.274 538 371.462 538 371.985 538 372.507 537.97 373.247 537.911 373.814 537.852 374.38 537.792 374.888 537.644 375.381 537.496 375.875 537.407 376.325 537.021 376.774 536.635 377.224 535.998 377.747 535.33 378.081 534.663 378.415 533.847 378.632 533.016 378.777 532.186 378.923 531.518 379.082 530.346 378.952 529.175 378.821 527.009 378.487 525.986 377.994 524.962 377.5 524.532 376.833 524.206 375.991 523.88 375.149 524.043 373.814 524.028 372.943 524.013 372.072 523.991 371.622 524.117 370.766 524.243 369.909 524.488 368.617 524.784 367.805 525.081 366.992 525.467 366.629 525.897 365.889 526.327 365.148 526.92 364.103 527.365 363.363 527.81 362.623 528.3 362.158 528.567 361.447 528.834 360.736 529.115 360.061 529.234 359.161 529.353 358.261 528.841 356.349 529.279 356.048Z" fill="#2F5597" fill-rule="evenodd"/><path d="M0 0 94.4882 0.000104987" stroke="#4472C4" stroke-width="4" stroke-miterlimit="8" stroke-dasharray="16 12" fill="none" fill-rule="evenodd" transform="matrix(1 0 0 -1 347 343)"/><text fill="#55A9E5" font-family="Calibri,Calibri_MSFontService,sans-serif" font-weight="700" font-size="19" transform="translate(457.129 421)">Sonicwall</text><path d="M0 0 94.4882 0.000104987" stroke="#4472C4" stroke-width="4" stroke-miterlimit="8" stroke-dasharray="16 12" fill="none" fill-rule="evenodd" transform="matrix(1 0 0 -1 551 343)"/><path d="M644 298.5C644 294.91 646.91 292 650.5 292L746.5 292C750.09 292 753 294.91 753 298.5L753 324.5C753 328.09 750.09 331 746.5 331L650.5 331C646.91 331 644 328.09 644 324.5Z" stroke="#55A9E5" stroke-width="6" stroke-miterlimit="8" fill="none" fill-rule="evenodd"/><rect x="700" y="308" width="17" height="6" fill="#55A9E5"/><path d="M724.5 312C724.5 308.962 726.739 306.5 729.5 306.5 732.261 306.5 734.5 308.962 734.5 312 734.5 315.038 732.261 317.5 729.5 317.5 726.739 317.5 724.5 315.038 724.5 312Z" stroke="#55A9E5" stroke-width="3.33333" stroke-miterlimit="8" fill="none" fill-rule="evenodd"/><rect x="652" y="303" width="5" height="6" fill="#55A9E5"/><rect x="662" y="303" width="5" height="6" fill="#55A9E5"/><rect x="653" y="315" width="5" height="6" fill="#55A9E5"/><rect x="662" y="315" width="5" height="6" fill="#55A9E5"/><path d="M738.5 312C738.5 308.962 740.739 306.5 743.5 306.5 746.261 306.5 748.5 308.962 748.5 312 748.5 315.038 746.261 317.5 743.5 317.5 740.739 317.5 738.5 315.038 738.5 312Z" stroke="#55A9E5" stroke-width="3.33333" stroke-miterlimit="8" fill="none" fill-rule="evenodd"/><rect x="674" y="308" width="17" height="6" fill="#55A9E5"/><path d="M645 351.5C645 347.91 647.91 345 651.5 345L747.5 345C751.09 345 754 347.91 754 351.5L754 377.5C754 381.09 751.09 384 747.5 384L651.5 384C647.91 384 645 381.09 645 377.5Z" stroke="#55A9E5" stroke-width="6" stroke-miterlimit="8" fill="none" fill-rule="evenodd"/><rect x="701" y="361" width="17" height="6" fill="#55A9E5"/><path d="M725.5 364.5C725.5 361.186 727.739 358.5 730.5 358.5 733.261 358.5 735.5 361.186 735.5 364.5 735.5 367.814 733.261 370.5 730.5 370.5 727.739 370.5 725.5 367.814 725.5 364.5Z" stroke="#55A9E5" stroke-width="3.33333" stroke-miterlimit="8" fill="none" fill-rule="evenodd"/><rect x="654" y="355" width="5" height="6" fill="#55A9E5"/><rect x="663" y="355" width="5" height="6" fill="#55A9E5"/><rect x="654" y="368" width="5" height="5" fill="#55A9E5"/><rect x="663" y="368" width="5" height="5" fill="#55A9E5"/><path d="M739.5 364.5C739.5 361.186 741.739 358.5 744.5 358.5 747.261 358.5 749.5 361.186 749.5 364.5 749.5 367.814 747.261 370.5 744.5 370.5 741.739 370.5 739.5 367.814 739.5 364.5Z" stroke="#55A9E5" stroke-width="3.33333" stroke-miterlimit="8" fill="none" fill-rule="evenodd"/><rect x="675" y="361" width="17" height="6" fill="#55A9E5"/><path d="M667 330 667 343.22" stroke="#55A9E5" stroke-width="4" stroke-miterlimit="8" fill="none" fill-rule="evenodd"/><path d="M729 331 729 344.22" stroke="#55A9E5" stroke-width="4" stroke-miterlimit="8" fill="none" fill-rule="evenodd"/><path d="M667 382 667 395.22" stroke="#55A9E5" stroke-width="4" stroke-miterlimit="8" fill="none" fill-rule="evenodd"/><path d="M729 382 729 395.22" stroke="#55A9E5" stroke-width="4" stroke-miterlimit="8" fill="none" fill-rule="evenodd"/><path d="M720.5 355.5 725.313 349.5 737.687 349.5 742.5 355.5Z" stroke="#2F5597" stroke-width="1.33333" stroke-miterlimit="8" fill="#2F5597" fill-rule="evenodd"/><path d="M712.5 357.5 715.708 353.5 748.292 353.5 751.5 357.5Z" stroke="#2F5597" stroke-width="1.33333" stroke-miterlimit="8" fill="#2F5597" fill-rule="evenodd"/><path d="M0 37 19 0 38 37Z" stroke="#2F5597" stroke-width="1.33333" stroke-miterlimit="8" fill="#2F5597" fill-rule="evenodd" transform="matrix(1 0 0 -1 712.5 392.5)"/><path d="M712.755 354.5C712.616 358.873 712.111 367.23 713.085 371.817 714.058 376.405 716.108 378.962 718.597 382.025 721.188 384.599 724.847 387.898 726.765 389.305 728.455 390.712 730.719 391.946 731.5 392.5" stroke="#55A9E5" stroke-width="3.33333" stroke-miterlimit="8" fill="#2F5597" fill-rule="evenodd"/><path d="M712.5 354.5C713.455 354.423 714.404 354.346 715.539 354.178 716.673 354.011 718.199 353.823 719.308 353.494 720.417 353.166 721.128 352.797 722.192 352.207 723.256 351.617 724.878 350.436 725.692 349.954 726.506 349.471 726.513 349.518 727.077 349.31 727.641 349.102 728.34 348.807 729.077 348.706 729.814 348.606 731.237 348.472 731.5 348.505" stroke="#55A9E5" stroke-width="3.33333" stroke-miterlimit="8" fill="#2F5597" fill-rule="evenodd"/><path d="M0.255292 0C0.115668 4.37316-0.389015 12.7299 0.584609 17.3173 1.55823 21.9047 3.60783 24.4616 6.097 27.5245 8.68772 30.0985 12.3474 33.398 14.2653 34.8048 15.9548 36.2117 18.2193 37.4456 19 38" stroke="#55A9E5" stroke-width="3.33333" stroke-miterlimit="8" fill="#2F5597" fill-rule="evenodd" transform="matrix(-1 0 0 1 750.5 354.5)"/><path d="M0 6C0.955122 5.92289 1.90383 5.84577 3.03845 5.67813 4.17307 5.51049 5.69872 5.32274 6.80769 4.99417 7.91665 4.66559 8.62821 4.29679 9.6923 3.7067 10.7564 3.11661 12.3782 1.93643 13.1923 1.45362 14.0064 0.970823 14.0128 1.01776 14.5769 0.80989 15.141 0.602019 15.8397 0.306965 16.5769 0.206384 17.3141 0.105802 18.7372-0.0282838 19 0.00523774" stroke="#55A9E5" stroke-width="3.33333" stroke-miterlimit="8" fill="#2F5597" fill-rule="evenodd" transform="matrix(-1 0 0 1 750.5 348.5)"/><text fill="#FFFFFF" font-family="Arial Black,Arial Black_MSFontService,sans-serif" font-weight="900" font-size="11" transform="translate(714.486 372)">DDoS</text><text fill="#55A9E5" font-family="Calibri,Calibri_MSFontService,sans-serif" font-weight="700" font-size="19" transform="translate(677.239 421)">DDoS</text><path d="M0 0 94.4882 0.000104987" stroke="#4472C4" stroke-width="4" stroke-miterlimit="8" stroke-dasharray="16 12" fill="none" fill-rule="evenodd" transform="matrix(1 0 0 -1 754 343)"/><path d="M1050.94 343 930 343" stroke="#4472C4" stroke-width="4" stroke-miterlimit="8" stroke-dasharray="16 12" fill="none" fill-rule="evenodd"/><path d="M0 15C-1.9097e-15 6.71573 6.71573-1.9097e-15 15-3.8194e-15 23.2843-7.6388e-15 30 6.71573 30 15 30 23.2843 23.2843 30 15 30 6.71573 30-9.5485e-15 23.2843 0 15Z" stroke="#2F5597" stroke-width="4" stroke-miterlimit="8" fill="none" fill-rule="evenodd" transform="matrix(-1 0 0 1 1083 328)"/><text fill="#55A9E5" font-family="Calibri,Calibri_MSFontService,sans-serif" font-weight="700" font-size="19" transform="translate(763.11 300)">10.1.1.1/24</text><text fill="#55A9E5" font-family="Calibri,Calibri_MSFontService,sans-serif" font-weight="700" font-size="19" transform="translate(859.215 421)">Router 1</text><text fill="#55A9E5" font-family="Calibri,Calibri_MSFontService,sans-serif" font-weight="700" font-size="19" transform="translate(347.349 302)">10.1.1.2/24</text><text fill="#55A9E5" font-family="Calibri,Calibri_MSFontService,sans-serif" font-weight="700" font-size="19" transform="translate(946.94 380)">172.16.0.1/24</text><text fill="#55A9E5" font-family="Calibri,Calibri_MSFontService,sans-serif" font-weight="700" font-size="19" transform="translate(141.493 579)">192.168.1.2/24</text><text fill="#55A9E5" font-family="Calibri,Calibri_MSFontService,sans-serif" font-weight="700" font-size="19" transform="translate(768.286 500)">10.1.2.1/24</text><text fill="#55A9E5" font-family="Calibri,Calibri_MSFontService,sans-serif" font-weight="700" font-size="19" transform="translate(346.737 508)">10.1.2.2/24</text><text fill="#55A9E5" font-family="Calibri,Calibri_MSFontService,sans-serif" font-weight="700" font-size="19" transform="translate(950.94 587)">172.16.0.2/24</text><path d="M63 316.501C63 280.326 92.3256 251 128.501 251L1130.5 251C1166.67 251 1196 280.326 1196 316.501L1196 578.499C1196 614.674 1166.67 644 1130.5 644L128.501 644C92.3256 644 63 614.674 63 578.499Z" stroke="#FF0000" stroke-width="4.33333" stroke-miterlimit="8" stroke-dasharray="17.3333 13" fill="none" fill-rule="evenodd"/><text fill="#FF0000" font-family="Calibri,Calibri_MSFontService,sans-serif" font-weight="700" font-size="19" transform="translate(592.141 239)">OSPF Area 100</text><path d="M849 323.25C849 333.882 866.685 342.5 888.5 342.5 910.315 342.5 928 333.882 928 323.25L928 361.75C928 372.382 910.315 381 888.5 381 866.685 381 849 372.382 849 361.75Z" fill="#55A9E5" fill-rule="evenodd"/><path d="M849 323.25C849 312.619 866.685 304 888.5 304 910.315 304 928 312.619 928 323.25 928 333.882 910.315 342.5 888.5 342.5 866.685 342.5 849 333.882 849 323.25Z" fill="#99CBEF" fill-rule="evenodd"/><path d="M928 323.25C928 333.882 910.315 342.5 888.5 342.5 866.685 342.5 849 333.882 849 323.25 849 312.619 866.685 304 888.5 304 910.315 304 928 312.619 928 323.25L928 361.75C928 372.382 910.315 381 888.5 381 866.685 381 849 372.382 849 361.75L849 323.25" stroke="#2F5597" stroke-width="4" stroke-miterlimit="8" fill="none" fill-rule="evenodd"/><path d="M903.5 321.5 915.5 321.5 915.5 318.5 921.5 324.5 915.5 330.5 915.5 327.5 903.5 327.5Z" stroke="#2F5597" stroke-width="2.66667" stroke-miterlimit="8" fill="#FFFFFF" fill-rule="evenodd"/><path d="M0 3 12 3 12 0 18 6 12 12 12 9 0 9Z" stroke="#2F5597" stroke-width="2.66667" stroke-miterlimit="8" fill="#FFFFFF" fill-rule="evenodd" transform="matrix(-1 0 0 1 875.5 318.5)"/><path d="M0 2.75 7.50001 2.75 7.50001 0 13 5.50001 7.50001 11 7.50001 8.25 0 8.25Z" stroke="#2F5597" stroke-width="2.66667" stroke-miterlimit="8" fill="#FFFFFF" fill-rule="evenodd" transform="matrix(-6.12323e-17 -1 -1 6.12323e-17 894.5 340.5)"/><path d="M891.75 307.5 891.75 316 894.5 316 889 321.5 883.5 316 886.25 316 886.25 307.5Z" stroke="#2F5597" stroke-width="2.66667" stroke-miterlimit="8" fill="#FFFFFF" fill-rule="evenodd"/><path d="M266 530.25C266 540.882 283.685 549.5 305.5 549.5 327.315 549.5 345 540.882 345 530.25L345 568.75C345 579.382 327.315 588 305.5 588 283.685 588 266 579.382 266 568.75Z" fill="#55A9E5" fill-rule="evenodd"/><path d="M266 530.25C266 519.619 283.685 511 305.5 511 327.315 511 345 519.619 345 530.25 345 540.882 327.315 549.5 305.5 549.5 283.685 549.5 266 540.882 266 530.25Z" fill="#99CBEF" fill-rule="evenodd"/><path d="M345 530.25C345 540.882 327.315 549.5 305.5 549.5 283.685 549.5 266 540.882 266 530.25 266 519.619 283.685 511 305.5 511 327.315 511 345 519.619 345 530.25L345 568.75C345 579.382 327.315 588 305.5 588 283.685 588 266 579.382 266 568.75L266 530.25" stroke="#2F5597" stroke-width="4" stroke-miterlimit="8" fill="none" fill-rule="evenodd"/><path d="M320.5 528.5 332.5 528.5 332.5 525.5 338.5 531.5 332.5 537.5 332.5 534.5 320.5 534.5Z" stroke="#2F5597" stroke-width="2.66667" stroke-miterlimit="8" fill="#FFFFFF" fill-rule="evenodd"/><path d="M0 3 12 3 12 0 18 6 12 12 12 9 0 9Z" stroke="#2F5597" stroke-width="2.66667" stroke-miterlimit="8" fill="#FFFFFF" fill-rule="evenodd" transform="matrix(-1 0 0 1 292.5 525.5)"/><path d="M0 2.75 7.50001 2.75 7.50001 0 13 5.50001 7.50001 11 7.50001 8.25 0 8.25Z" stroke="#2F5597" stroke-width="2.66667" stroke-miterlimit="8" fill="#FFFFFF" fill-rule="evenodd" transform="matrix(-6.12323e-17 -1 -1 6.12323e-17 311.5 547.5)"/><path d="M308.75 514.5 308.75 523 311.5 523 306 528.5 300.5 523 303.25 523 303.25 514.5Z" stroke="#2F5597" stroke-width="2.66667" stroke-miterlimit="8" fill="#FFFFFF" fill-rule="evenodd"/><path d="M0 0 120.945 0.000104987" stroke="#4472C4" stroke-width="4" stroke-miterlimit="8" stroke-dasharray="16 12" fill="none" fill-rule="evenodd" transform="matrix(1 0 0 -1 143 549)"/><path d="M110 550C110 541.716 116.716 535 125 535 133.284 535 140 541.716 140 550 140 558.284 133.284 565 125 565 116.716 565 110 558.284 110 550Z" stroke="#2F5597" stroke-width="4" stroke-miterlimit="8" fill="none" fill-rule="evenodd"/><text fill="#55A9E5" font-family="Calibri,Calibri_MSFontService,sans-serif" font-weight="700" font-size="19" transform="translate(272.682 627)">Router 4</text><rect x="443" y="507" width="107" height="81" stroke="#55A9E5" stroke-width="4" stroke-miterlimit="8" fill="none"/><path d="M443 533 549.43 533" stroke="#55A9E5" stroke-width="4" stroke-miterlimit="8" fill="none" fill-rule="evenodd"/><path d="M443 562 549.43 562" stroke="#55A9E5" stroke-width="4" stroke-miterlimit="8" fill="none" fill-rule="evenodd"/><path d="M470 506 470 533.056" stroke="#55A9E5" stroke-width="4" stroke-miterlimit="8" fill="none" fill-rule="evenodd"/><path d="M523 506 523 533.056" stroke="#55A9E5" stroke-width="4" stroke-miterlimit="8" fill="none" fill-rule="evenodd"/><path d="M497 533 497 561.097" stroke="#55A9E5" stroke-width="4" stroke-miterlimit="8" fill="none" fill-rule="evenodd"/><path d="M523 560 523 588.097" stroke="#55A9E5" stroke-width="4" stroke-miterlimit="8" fill="none" fill-rule="evenodd"/><path d="M470 560 470 588.097" stroke="#55A9E5" stroke-width="4" stroke-miterlimit="8" fill="none" fill-rule="evenodd"/><path d="M520.826 540.014C520.967 540.234 520.911 543.317 521.163 544.506 521.416 545.695 521.752 546.267 522.341 547.148 522.93 548.029 523.8 549.027 524.698 549.79 525.595 550.554 526.549 551.067 527.727 551.728 528.906 552.388 530.519 553.093 531.767 553.754 533.016 554.414 533.997 554.913 535.218 555.691 536.438 556.469 537.967 557.291 539.089 558.422 540.211 559.552 541.263 561.372 541.95 562.473 542.638 563.574 542.82 564.396 543.213 565.027 543.606 565.658 543.956 566.055 544.307 566.26 544.658 566.466 545.092 566.466 545.317 566.26 545.541 566.055 545.415 564.822 545.653 565.027 545.892 565.233 546.523 566.583 546.747 567.493 546.972 568.403 547 569.387 547 570.488 547 571.589 546.93 572.778 546.747 574.099 546.565 575.42 546.172 577.181 545.906 578.414 545.639 579.647 545.513 580.513 545.148 581.497 544.784 582.48 544.293 583.361 543.718 584.315 543.143 585.269 542.301 586.503 541.698 587.222 541.095 587.941 540.716 588.161 540.099 588.631 539.482 589.101 539.131 589.512 537.995 590.04 536.859 590.569 534.699 591.493 533.282 591.802 531.865 592.11 530.701 591.992 529.495 591.89 528.289 591.787 527.18 591.508 526.044 591.185 524.908 590.862 523.94 590.613 522.678 589.952 521.416 589.292 519.578 588.22 518.47 587.222 517.362 586.224 516.604 585.416 516.029 583.963 515.454 582.51 515.118 580.102 515.019 578.502 514.921 576.902 515.216 575.611 515.44 574.363 515.665 573.115 516.099 571.882 516.366 571.016 516.632 570.15 516.801 569.901 517.039 569.167 517.278 568.433 517.713 567.405 517.797 566.612 517.881 565.82 517.334 564.499 517.544 564.411 517.755 564.322 518.484 566.348 519.059 566.084 519.634 565.82 520.532 563.911 520.995 562.825 521.458 561.739 521.64 560.785 521.836 559.566 522.033 558.348 522.145 556.719 522.173 555.515 522.201 554.311 522.201 553.475 522.005 552.344 521.808 551.214 521.261 549.834 520.995 548.733 520.728 547.632 520.518 546.664 520.406 545.739 520.293 544.814 520.251 544.124 520.321 543.185 520.392 542.245 520.686 539.794 520.826 540.014Z" fill="#55A9E5" fill-rule="evenodd"/><path d="M529.279 562.05C529.716 561.736 531.207 562.989 531.859 563.413 532.512 563.837 532.809 564.246 533.194 564.594 533.58 564.943 533.758 565.018 534.173 565.503 534.589 565.988 535.271 566.851 535.686 567.502 536.101 568.154 536.398 568.608 536.665 569.411 536.932 570.213 537.11 571.395 537.288 572.319 537.466 573.242 537.629 574.121 537.733 574.954 537.837 575.787 537.867 576.696 537.911 577.317 537.956 577.938 538 578.134 538 578.68 538 579.225 537.97 579.997 537.911 580.588 537.852 581.179 537.792 581.709 537.644 582.224 537.496 582.739 537.407 583.208 537.021 583.678 536.635 584.147 535.998 584.692 535.33 585.041 534.663 585.389 533.847 585.616 533.016 585.768 532.186 585.919 531.518 586.086 530.346 585.95 529.175 585.813 527.009 585.465 525.986 584.95 524.962 584.435 524.532 583.738 524.206 582.86 523.88 581.981 524.043 580.588 524.028 579.679 524.013 578.771 523.991 578.301 524.117 577.407 524.243 576.514 524.488 575.166 524.784 574.318 525.081 573.47 525.467 573.091 525.897 572.319 526.327 571.546 526.92 570.456 527.365 569.683 527.81 568.911 528.3 568.426 528.567 567.684 528.834 566.942 529.115 566.238 529.234 565.299 529.353 564.36 528.841 562.364 529.279 562.05Z" fill="#2F5597" fill-rule="evenodd"/><path d="M0 0 94.4882 0.000104987" stroke="#4472C4" stroke-width="4" stroke-miterlimit="8" stroke-dasharray="16 12" fill="none" fill-rule="evenodd" transform="matrix(1 0 0 -1 347 549)"/><text fill="#55A9E5" font-family="Calibri,Calibri_MSFontService,sans-serif" font-weight="700" font-size="19" transform="translate(457.129 627)">Sonicwall</text><path d="M0 0 94.4882 0.000104987" stroke="#4472C4" stroke-width="4" stroke-miterlimit="8" stroke-dasharray="16 12" fill="none" fill-rule="evenodd" transform="matrix(1 0 0 -1 551 549)"/><path d="M644 505.333C644 501.836 646.836 499 650.333 499L746.667 499C750.164 499 753 501.836 753 505.333L753 530.667C753 534.164 750.164 537 746.667 537L650.333 537C646.836 537 644 534.164 644 530.667Z" stroke="#55A9E5" stroke-width="6" stroke-miterlimit="8" fill="none" fill-rule="evenodd"/><rect x="700" y="515" width="17" height="6" fill="#55A9E5"/><path d="M724.5 518.5C724.5 515.186 726.739 512.5 729.5 512.5 732.261 512.5 734.5 515.186 734.5 518.5 734.5 521.814 732.261 524.5 729.5 524.5 726.739 524.5 724.5 521.814 724.5 518.5Z" stroke="#55A9E5" stroke-width="3.33333" stroke-miterlimit="8" fill="none" fill-rule="evenodd"/><rect x="652" y="509" width="5" height="6" fill="#55A9E5"/><rect x="662" y="509" width="5" height="6" fill="#55A9E5"/><rect x="653" y="521" width="5" height="6" fill="#55A9E5"/><rect x="662" y="521" width="5" height="6" fill="#55A9E5"/><path d="M738.5 518.5C738.5 515.186 740.739 512.5 743.5 512.5 746.261 512.5 748.5 515.186 748.5 518.5 748.5 521.814 746.261 524.5 743.5 524.5 740.739 524.5 738.5 521.814 738.5 518.5Z" stroke="#55A9E5" stroke-width="3.33333" stroke-miterlimit="8" fill="none" fill-rule="evenodd"/><rect x="674" y="515" width="17" height="6" fill="#55A9E5"/><path d="M645 557.5C645 553.91 647.91 551 651.5 551L747.5 551C751.09 551 754 553.91 754 557.5L754 583.5C754 587.09 751.09 590 747.5 590L651.5 590C647.91 590 645 587.09 645 583.5Z" stroke="#55A9E5" stroke-width="6" stroke-miterlimit="8" fill="none" fill-rule="evenodd"/><rect x="701" y="567" width="17" height="6" fill="#55A9E5"/><path d="M725.5 571C725.5 567.963 727.739 565.5 730.5 565.5 733.261 565.5 735.5 567.963 735.5 571 735.5 574.038 733.261 576.5 730.5 576.5 727.739 576.5 725.5 574.038 725.5 571Z" stroke="#55A9E5" stroke-width="3.33333" stroke-miterlimit="8" fill="none" fill-rule="evenodd"/><rect x="654" y="562" width="5" height="6" fill="#55A9E5"/><rect x="663" y="562" width="5" height="6" fill="#55A9E5"/><rect x="654" y="574" width="5" height="6" fill="#55A9E5"/><rect x="663" y="574" width="5" height="6" fill="#55A9E5"/><path d="M739.5 571C739.5 567.963 741.739 565.5 744.5 565.5 747.261 565.5 749.5 567.963 749.5 571 749.5 574.038 747.261 576.5 744.5 576.5 741.739 576.5 739.5 574.038 739.5 571Z" stroke="#55A9E5" stroke-width="3.33333" stroke-miterlimit="8" fill="none" fill-rule="evenodd"/><rect x="675" y="567" width="17" height="6" fill="#55A9E5"/><path d="M667 537 667 550.22" stroke="#55A9E5" stroke-width="4" stroke-miterlimit="8" fill="none" fill-rule="evenodd"/><path d="M729 537 729 550.22" stroke="#55A9E5" stroke-width="4" stroke-miterlimit="8" fill="none" fill-rule="evenodd"/><path d="M667 588 667 601.22" stroke="#55A9E5" stroke-width="4" stroke-miterlimit="8" fill="none" fill-rule="evenodd"/><path d="M729 588 729 601.22" stroke="#55A9E5" stroke-width="4" stroke-miterlimit="8" fill="none" fill-rule="evenodd"/><path d="M720.5 562.5 725.313 556.5 737.687 556.5 742.5 562.5Z" stroke="#2F5597" stroke-width="1.33333" stroke-miterlimit="8" fill="#2F5597" fill-rule="evenodd"/><path d="M712.5 563.5 715.708 559.5 748.292 559.5 751.5 563.5Z" stroke="#2F5597" stroke-width="1.33333" stroke-miterlimit="8" fill="#2F5597" fill-rule="evenodd"/><path d="M0 36 19 0 38 36Z" stroke="#2F5597" stroke-width="1.33333" stroke-miterlimit="8" fill="#2F5597" fill-rule="evenodd" transform="matrix(1 0 0 -1 712.5 598.5)"/><path d="M712.755 560.5C712.616 564.873 712.111 573.23 713.085 577.817 714.058 582.405 716.108 584.962 718.597 588.025 721.188 590.599 724.847 593.898 726.765 595.305 728.455 596.712 730.719 597.946 731.5 598.5" stroke="#55A9E5" stroke-width="3.33333" stroke-miterlimit="8" fill="#2F5597" fill-rule="evenodd"/><path d="M712.5 560.5C713.455 560.436 714.404 560.372 715.539 560.232 716.673 560.092 718.199 559.936 719.308 559.662 720.417 559.388 721.128 559.081 722.192 558.589 723.256 558.097 724.878 557.114 725.692 556.711 726.506 556.309 726.513 556.348 727.077 556.175 727.641 556.002 728.34 555.756 729.077 555.672 729.814 555.588 731.237 555.477 731.5 555.504" stroke="#55A9E5" stroke-width="3.33333" stroke-miterlimit="8" fill="#2F5597" fill-rule="evenodd"/><path d="M0.255292 0C0.115668 4.37316-0.389015 12.7299 0.584609 17.3173 1.55823 21.9047 3.60783 24.4616 6.097 27.5245 8.68772 30.0985 12.3474 33.398 14.2653 34.8048 15.9548 36.2117 18.2193 37.4456 19 38" stroke="#55A9E5" stroke-width="3.33333" stroke-miterlimit="8" fill="#2F5597" fill-rule="evenodd" transform="matrix(-1 0 0 1 750.5 560.5)"/><path d="M0 5C0.955122 4.93574 1.90383 4.87148 3.03845 4.73178 4.17307 4.59208 5.69872 4.43562 6.80769 4.16181 7.91665 3.88799 8.62821 3.58066 9.6923 3.08891 10.7564 2.59717 12.3782 1.61369 13.1923 1.21135 14.0064 0.80902 14.0128 0.848134 14.5769 0.674908 15.141 0.501683 15.8397 0.255804 16.5769 0.171987 17.3141 0.0881686 18.7372-0.0235698 19 0.00436478" stroke="#55A9E5" stroke-width="3.33333" stroke-miterlimit="8" fill="#2F5597" fill-rule="evenodd" transform="matrix(-1 0 0 1 750.5 555.5)"/><text fill="#FFFFFF" font-family="Arial Black,Arial Black_MSFontService,sans-serif" font-weight="900" font-size="11" transform="translate(714.486 578)">DDoS</text><text fill="#55A9E5" font-family="Calibri,Calibri_MSFontService,sans-serif" font-weight="700" font-size="19" transform="translate(677.239 627)">DDoS</text><path d="M0 0 94.4882 0.000104987" stroke="#4472C4" stroke-width="4" stroke-miterlimit="8" stroke-dasharray="16 12" fill="none" fill-rule="evenodd" transform="matrix(1 0 0 -1 754 549)"/><path d="M1050.94 549 930 549" stroke="#4472C4" stroke-width="4" stroke-miterlimit="8" stroke-dasharray="16 12" fill="none" fill-rule="evenodd"/><path d="M0 15C-1.9097e-15 6.71573 6.71573-1.9097e-15 15-3.8194e-15 23.2843-7.6388e-15 30 6.71573 30 15 30 23.2843 23.2843 30 15 30 6.71573 30-9.5485e-15 23.2843 0 15Z" stroke="#2F5597" stroke-width="4" stroke-miterlimit="8" fill="none" fill-rule="evenodd" transform="matrix(-1 0 0 1 1083 534)"/><text fill="#55A9E5" font-family="Calibri,Calibri_MSFontService,sans-serif" font-weight="700" font-size="19" transform="translate(859.215 627)">Router 2</text><path d="M849 530C849 540.493 866.685 549 888.5 549 910.315 549 928 540.493 928 530L928 568C928 578.493 910.315 587 888.5 587 866.685 587 849 578.493 849 568Z" fill="#55A9E5" fill-rule="evenodd"/><path d="M849 530C849 519.507 866.685 511 888.5 511 910.315 511 928 519.507 928 530 928 540.493 910.315 549 888.5 549 866.685 549 849 540.493 849 530Z" fill="#99CBEF" fill-rule="evenodd"/><path d="M928 530C928 540.493 910.315 549 888.5 549 866.685 549 849 540.493 849 530 849 519.507 866.685 511 888.5 511 910.315 511 928 519.507 928 530L928 568C928 578.493 910.315 587 888.5 587 866.685 587 849 578.493 849 568L849 530" stroke="#2F5597" stroke-width="4" stroke-miterlimit="8" fill="none" fill-rule="evenodd"/><path d="M903.5 527.5 915.5 527.5 915.5 524.5 921.5 530.5 915.5 536.5 915.5 533.5 903.5 533.5Z" stroke="#2F5597" stroke-width="2.66667" stroke-miterlimit="8" fill="#FFFFFF" fill-rule="evenodd"/><path d="M0 3 12 3 12 0 18 6 12 12 12 9 0 9Z" stroke="#2F5597" stroke-width="2.66667" stroke-miterlimit="8" fill="#FFFFFF" fill-rule="evenodd" transform="matrix(-1 0 0 1 875.5 524.5)"/><path d="M0 2.75 8.50001 2.75 8.50001 0 14 5.50001 8.50001 11 8.50001 8.25 0 8.25Z" stroke="#2F5597" stroke-width="2.66667" stroke-miterlimit="8" fill="#FFFFFF" fill-rule="evenodd" transform="matrix(-6.12323e-17 -1 -1 6.12323e-17 894.5 547.5)"/><path d="M891.75 513.5 891.75 522 894.5 522 889 527.5 883.5 522 886.25 522 886.25 513.5Z" stroke="#2F5597" stroke-width="2.66667" stroke-miterlimit="8" fill="#FFFFFF" fill-rule="evenodd"/><rect x="45" y="20" width="1171" height="662" stroke="#172C51" stroke-width="2" stroke-miterlimit="8" fill="none"/><text font-family="Calibri,Calibri_MSFontService,sans-serif" font-weight="400" font-size="24" transform="translate(475.309 710)">Figure</text><text font-family="Calibri,Calibri_MSFontService,sans-serif" font-weight="400" font-size="24" transform="translate(541.329 710)">4.</text><text font-family="Calibri,Calibri_MSFontService,sans-serif" font-weight="400" font-size="24" transform="translate(564.996 710)">Network original topology</text></g></svg>